<svg id="Layer_1" data-name="Layer 1" xmlns="http://www.w3.org/2000/svg" xmlns:xlink="http://www.w3.org/1999/xlink" viewBox="0 0 354.34 211.62"><defs><style>.cls-1{fill:#56587b;}.cls-2{fill:#feda00;}.cls-3{fill:#9899af;}.cls-14,.cls-4{opacity:0.3;}.cls-5{fill:#663f30;}.cls-6{fill:url(#radial-gradient);}.cls-7{fill:url(#radial-gradient-2);}.cls-8{fill:url(#radial-gradient-3);}.cls-9{fill:url(#radial-gradient-4);}.cls-10{fill:url(#radial-gradient-5);}.cls-11{fill:url(#radial-gradient-6);}.cls-12{fill:url(#radial-gradient-7);}.cls-13{fill:url(#radial-gradient-8);}.cls-14{fill:#0d0d0d;}.cls-15{fill:#6d6e8d;}.cls-16{fill:#1d374e;}.cls-17{fill:#2a4e68;}.cls-18{fill:#1b1d4d;}.cls-19{fill:#0f2034;}.cls-20{fill:url(#radial-gradient-9);}.cls-21{fill:url(#radial-gradient-10);}.cls-22{fill:url(#radial-gradient-11);}.cls-23{fill:url(#radial-gradient-12);}.cls-24{fill:url(#radial-gradient-13);}.cls-25{fill:url(#radial-gradient-14);}.cls-26{fill:url(#radial-gradient-15);}.cls-27{fill:url(#radial-gradient-16);}.cls-28{fill:url(#radial-gradient-17);}.cls-29{fill:url(#radial-gradient-18);}.cls-30{fill:url(#radial-gradient-19);}.cls-31{fill:url(#radial-gradient-20);}.cls-32{fill:url(#radial-gradient-21);}.cls-33{fill:url(#radial-gradient-22);}.cls-34{fill:url(#radial-gradient-23);}.cls-35{fill:url(#radial-gradient-24);}.cls-36{fill:url(#radial-gradient-25);}.cls-37{fill:url(#radial-gradient-26);}.cls-38{fill:url(#radial-gradient-27);}.cls-39{fill:url(#radial-gradient-28);}.cls-40{fill:url(#radial-gradient-29);}.cls-41{fill:url(#radial-gradient-30);}.cls-42{fill:url(#radial-gradient-31);}.cls-43{fill:url(#radial-gradient-32);}.cls-44{fill:url(#radial-gradient-33);}.cls-45{fill:url(#radial-gradient-34);}.cls-46{fill:url(#radial-gradient-35);}.cls-47{fill:url(#radial-gradient-36);}.cls-48{fill:url(#radial-gradient-37);}.cls-49{fill:url(#radial-gradient-38);}.cls-50{fill:url(#radial-gradient-39);}.cls-51{fill:url(#radial-gradient-40);}.cls-52{fill:#f2d361;}.cls-53{fill:#2f3234;}.cls-54{fill:#40454a;}.cls-55{fill:#4a4e55;}</style><radialGradient id="radial-gradient" cx="203.46" cy="287.93" r="4.38" gradientUnits="userSpaceOnUse"><stop offset="0" stop-color="#feda00"/><stop offset="0.58" stop-color="#feda00"/><stop offset="0.94" stop-color="#feda00"/><stop offset="1" stop-color="#feda00"/></radialGradient><radialGradient id="radial-gradient-2" cx="208.44" cy="298.18" r="4.38" xlink:href="#radial-gradient"/><radialGradient id="radial-gradient-3" cx="293.88" cy="65.92" r="8.32" xlink:href="#radial-gradient"/><radialGradient id="radial-gradient-4" cx="271.71" cy="36.43" r="8.32" xlink:href="#radial-gradient"/><radialGradient id="radial-gradient-5" cx="251.92" cy="32.94" r="8.32" xlink:href="#radial-gradient"/><radialGradient id="radial-gradient-6" cx="243.6" cy="40.43" r="8.32" xlink:href="#radial-gradient"/><radialGradient id="radial-gradient-7" cx="205.35" cy="49.61" r="8.32" xlink:href="#radial-gradient"/><radialGradient id="radial-gradient-8" cx="324.09" cy="275.64" r="4.38" xlink:href="#radial-gradient"/><radialGradient id="radial-gradient-9" cx="309.9" cy="239.79" r="4.38" xlink:href="#radial-gradient"/><radialGradient id="radial-gradient-10" cx="261.72" cy="246.01" r="4.38" xlink:href="#radial-gradient"/><radialGradient id="radial-gradient-11" cx="196.91" cy="227.85" r="4.38" xlink:href="#radial-gradient"/><radialGradient id="radial-gradient-12" cx="176.47" cy="232.47" r="4.38" xlink:href="#radial-gradient"/><radialGradient id="radial-gradient-13" cx="217.82" cy="289.22" r="8.32" xlink:href="#radial-gradient"/><radialGradient id="radial-gradient-14" cx="210.57" cy="125.25" r="8.32" xlink:href="#radial-gradient"/><radialGradient id="radial-gradient-15" cx="192.88" cy="105.98" r="8.32" xlink:href="#radial-gradient"/><radialGradient id="radial-gradient-16" cx="236" cy="86.12" r="8.32" xlink:href="#radial-gradient"/><radialGradient id="radial-gradient-17" cx="245.88" cy="72.34" r="8.32" xlink:href="#radial-gradient"/><radialGradient id="radial-gradient-18" cx="251.92" cy="93.65" r="8.32" xlink:href="#radial-gradient"/><radialGradient id="radial-gradient-19" cx="317.39" cy="78.97" r="8.32" xlink:href="#radial-gradient"/><radialGradient id="radial-gradient-20" cx="301.07" cy="23.18" r="8.32" xlink:href="#radial-gradient"/><radialGradient id="radial-gradient-21" cx="297.44" cy="41.67" r="8.32" xlink:href="#radial-gradient"/><radialGradient id="radial-gradient-22" cx="153.96" cy="65.37" r="8.32" xlink:href="#radial-gradient"/><radialGradient id="radial-gradient-23" cx="146.37" cy="48.9" r="8.32" xlink:href="#radial-gradient"/><radialGradient id="radial-gradient-24" cx="194.58" cy="35.03" r="8.32" xlink:href="#radial-gradient"/><radialGradient id="radial-gradient-25" cx="71.11" cy="13.48" r="8.32" xlink:href="#radial-gradient"/><radialGradient id="radial-gradient-26" cx="81.91" cy="19.56" r="8.32" xlink:href="#radial-gradient"/><radialGradient id="radial-gradient-27" cx="231.82" cy="296.53" r="4.38" xlink:href="#radial-gradient"/><radialGradient id="radial-gradient-28" cx="255.84" cy="114.83" r="4.38" xlink:href="#radial-gradient"/><radialGradient id="radial-gradient-29" cx="313.77" cy="301.41" r="4.38" xlink:href="#radial-gradient"/><radialGradient id="radial-gradient-30" cx="349.83" cy="301.59" r="4.38" xlink:href="#radial-gradient"/><radialGradient id="radial-gradient-31" cx="380.79" cy="259.6" r="4.38" xlink:href="#radial-gradient"/><radialGradient id="radial-gradient-32" cx="370.82" cy="258.36" r="4.38" xlink:href="#radial-gradient"/><radialGradient id="radial-gradient-33" cx="325.44" cy="261.15" r="4.38" xlink:href="#radial-gradient"/><radialGradient id="radial-gradient-34" cx="377.7" cy="229.85" r="4.38" xlink:href="#radial-gradient"/><radialGradient id="radial-gradient-35" cx="385.11" cy="220.39" r="4.38" xlink:href="#radial-gradient"/><radialGradient id="radial-gradient-36" cx="359.27" cy="308.12" r="4.38" xlink:href="#radial-gradient"/><radialGradient id="radial-gradient-37" cx="198.92" cy="279.16" r="4.38" xlink:href="#radial-gradient"/><radialGradient id="radial-gradient-38" cx="142.34" cy="231.11" r="4.38" xlink:href="#radial-gradient"/><radialGradient id="radial-gradient-39" cx="170.41" cy="242.74" r="4.38" xlink:href="#radial-gradient"/><radialGradient id="radial-gradient-40" cx="62.94" cy="31.25" r="4.38" xlink:href="#radial-gradient"/></defs><title>canada</title><path class="cls-1" d="M398.34,266.49v-8H395.7v-8.43c1.47.09,2.8-.08,3.3-1.24a1.65,1.65,0,0,0,.11-.36h0v-24l-14.57-.79-12.69,9v2.66l-16-9.34v14.14h-1.12V229.5h-3.15v-1.19H334.74v11.86H324.13v15.65l-.12.08c-3.85,2.41-5.2,1.59-13.53.75a40.85,40.85,0,0,0-13.28,1.12v-16l-21.26-7.09V255l-6.13.15v-21.8l-4.53.29v21.63l-5.66.14v-.62h5.22V235l-5.22,1.17v-4.34H242v-5.9h-1.14v-6.23l-4.18,1.08-.19,5.15h-4.6v-6.23h-2.62v3.52l-4.74-1.77v4.48H218.5v5.9h-9v-7.32L204,228v3.78h-1.37v-6.26h-1.09v-.91h-3.51v7.17h-2.13V225.4l-.83.42H192.6v6H181v12.55l-.66.31v-11H169.42v3.88h-.18v-5.74l-9.75,2V238l-5.24-1.42v7.59l-2.62-1V232.69h-8.71v-5.3l-14.09-1-2.68-2.52v-7.23h-4.27V212.5H116v.14l-3.61.1v-7.52h-3.6v7.61l-13.71.35v23.93h0a2.79,2.79,0,0,0,.7,1H94.32v4.86l-1.88-.68-5.91,2.62v8.29l-3.47.38-6.23,5.3v23.86h0a.83.83,0,0,0,.22.57c.83.95,3.61.88,5.78.35v7.7a1.16,1.16,0,0,0,0,1.31v3.11h.28a1.32,1.32,0,0,0-.28.94c0,.34.31.58.68.8v4.43h.32a1.85,1.85,0,0,0,1.78.41v7.91H93c-1,.61-1.6,1.36-3,1.57-3.13.52-3.92-1.2-7.87-1.79-2.37-.36-4.52,2.69-6.86,5.37V287.64l-17,11.93-.36-1.07-11.54-4v23.74c1,26.3,5.3,42.21,6.5,42.82s7.41-1.64,8.4.22c2.51,3.11,5.45,4.42,8.39,4.18s.68-2.68,6.39-3.7c1.91-.34-.33,3.46,4.43,4.26,8.77,1.47,7,4.14,12.3,6.54,1,.45,2,.84,3,1.18V385.5h0c.21,2.05,12,9.39,13.26,7.23v-6.44a3.16,3.16,0,0,0,1.64.74c4.52.71,2.71-5,5.33-3.63a1.84,1.84,0,0,1,.45.29v2.12c0,.86.76,1.82,4.84,2.88,1,.26,3-1.44,4.27-2.1v10.18c-.12,2.92,25.64,6.71,27.89,5.69.49-.21.71-.51.73-.84h0v-3.5a3.86,3.86,0,0,0,.41.07c61.07-11.9,116.76-44.54,116.76-44.54V351a2.65,2.65,0,0,1,.42-.18c2.34-.79,4.8,2.3,8.37.57s3.61-2.51,4.92-2.84,2.5,1.35,3.94.28,11.11-1.58,11.36-7.6c.09-2.26,20.87-3.16,22.89-4.17s1.1-2.25,3.15-2.44,4.77,1.5,7.57,1.31,6.89-1.2,9.42-.59,11.71,4,12.79,4.82-1.41,6.22,4.34,5.64,5.9-11.59,6-13.18v-7.8a2.93,2.93,0,0,0,.56-1.6h0v-8.62c2.59-2.5,6.79-7.05,6.71-9.25v-11.8a4.32,4.32,0,0,0,3.34.15c3.94-1.66,7.26,1.26,9.1-2.12a3.77,3.77,0,0,0,.42-1.72h0v-6.62c.15.82.36,1.75,1.8,1.66,2.58-.16,1.23-6.1,3.49-3.9s-4.31,7.22,1.06,10.13a6.75,6.75,0,0,0,7.39-.11.62.62,0,0,0,.3-.65h0V266.74Zm-203.73,15c.38-1,4.9-.06,7.14-.29v1.33C199.34,282.35,194.18,282.64,194.61,281.5ZM125.4,263.45l.83-.26v2.45l-.83-.33Zm-6.63,50.46c-2.19-1.34,3.75-.52,4.86-3.42l5.55-.49C126.16,312.83,123,316.48,118.77,313.91Zm29.73-3c-.55,1.15-4.24-.44-8.09-1.88l4.59-.41C147.09,309.29,149,309.87,148.5,310.9Zm25.1-14.49c-1.68,1-5.2-2.71-7.29-3.49s-5.46.35-5.7,1.11,5.25-.1,3.2,1.84-4.76,4.59-9.4,5.81c-3.36.87-3.63-.11-5.9-.31v-3.43h1.12V286.07h4.84a19.52,19.52,0,0,0,4.59,0h2.81l.11-.36c2.67-.37,4.7-.71,4.28-.07-3,4.69,4.31,1.35,4.52,2.28.29,1.33-2.38,2.74-1.84,4.18S175.28,295.45,173.6,296.41Zm17-23.87a.3.3,0,0,1,0-.35Zm0-2.4-.48-.27c-4.39-2.29-12.06,2.41-11.65,3.7s7.12-.11,6.48,1.84c-1.27,3.9,6.3,6.17,4.39,7.55-4.51,3.28-5-4.51-13.7-3-3.19.58,3,2.66,2,4.06s-8.45-1.52-8.45-1.52-.87,1.25-3.69.42c-2.61-.75-.19-1.78-1.51-2.72V278.9l1.67-5.55c.92.37.14,3.54,3.94,2.11a28,28,0,0,0,3.05-1.24l3.78,1.37,1.34-3.83c2.42-1.24,4.48-2.42,4.75-2.87.55-1-1.19-3.53-.54-5.19h8.61ZM307,312.63c-7,0-11.82,2.3-16.93.13s-8-3.87-11.28-4.24-8.53,7.29-18.45,7c-12.73-.35-18.43.68-20.85,2.28s2.09,1.53-3,4.68c-2.41,1.51-8.51-7.86-11-5.17-4.6,5-9.85-1.08-9.85-1.08s-9.39-5.94-9.15-15c0-1.94-9.58.82-10.73-.23s6-.68,8.24-2c.73-.47-2.76-2.62-1-2.86,5.37-.74,6.66-3.49,1.51-5.1-5.48-1.7-12.87,4.65-12.26,1.83s4.64.92,8.29-4.55c2.39-3.57-8.94.29-6.86-3.52,1-1.8,5.72-1.34,8-1.5v1.41c-.14.13-.12.28,0,.45l0,5.14h9.67c.16,1.1-.22,2.31.83,2.81,1.52.7,1.45-1.92,3.12-2.18s3.83,3.41,6.61.67a1.68,1.68,0,0,0,.62-1.3v-5.1c.87-.27,1.76-.55,2.55-.84v4.4h0c.15,1.22,3.32,2.58,4.65,2.26a2.54,2.54,0,0,0,1.54-2.56V269.08l.39-.39v9.51h0c0,.39.47.79,1,1.05a5.12,5.12,0,0,0,2.72.34v4.54h0a1.17,1.17,0,0,0,.55,1.16c.8.44,5.6,1.61,6.07.78a.22.22,0,0,0,0-.14h0V282c4.18,2,12.22,3.6,13.27,3.49,1.38-.14-.7-2.77,2.17-1.35s1.4,5.35,4.22,6.24,12.29-1,18.13,1.5c9,3.84,6.55,10.18,9.51,11.65,6.19,3,20.6-.18,22.8,6C312.88,311.28,314,312.66,307,312.63Z" transform="translate(-46.4 -191.01)"/><path class="cls-2" d="M278.41,295.77c-1.89-.23-4.48.64-3.7,2.57s4.35,1.71,6.36.59S280.29,296,278.41,295.77Z" transform="translate(-46.4 -191.01)"/><path class="cls-2" d="M295,309.25a5.87,5.87,0,0,0-3.89,1.3c-1,1-.06,1.7,1.05,1.91s5.3-1.17,5.67-1.81S296.25,309.25,295,309.25Z" transform="translate(-46.4 -191.01)"/><path class="cls-2" d="M161.08,288.52c-2.28-.53-7.75-.48-9.08.34s2.85,1.13,2.78,2.09-3.52,1.3-2.37,2.22,9.63-1,11.19-2.49C164.77,289.58,163.36,289.05,161.08,288.52Z" transform="translate(-46.4 -191.01)"/><path class="cls-3" d="M383.94,246.44c-6.56-.19,2.5,4,7.26,3.81s-7.47,9.24-15,9.24c-4.3,0-.11-2-2.7-2.38-4.14-.59-6.57,5.08-8.74,4.63s6.05-9.53-2.34-8.22c-17.06,3.78,4.07,22.76,1.32,23.68s-14.53-15.11-14.4-20.15,15.09-14.87,9.35-19.71a58,58,0,0,0-5-3.77c-2.86-2,1.31-2.81,1.07-4.07s-.13-4.66-5.64-5.53a18.76,18.76,0,0,0-13.55,3c-3.44,2.33,5,7.07,1,9.06s-3.6-9.2-5.9-9.9-2.79,3.63-6.65,6.05-5.2,1.59-13.53.76-15.09,1.81-18.63,2.33-1.09-1.81-2.78-1.37c-5.5,1.42-12.32-.3-13.08.67s8,3.89,9.06,6,3.1,3.14.33,5.2c-6.45,4.81-14.24-.92-21.08-1.46-3-.25-6.24,4.33-12.27,5.27-8.12,1.29-12.66,5.25-12.35,6.76.54,2.67,14.36,5.63,15.76,5.49s-.7-2.77,2.17-1.35,1.4,5.36,4.22,6.22,12.29-1,18.13,1.53c9,3.83,6.55,10.18,9.51,11.63,6.19,3.06,20.6-.17,22.8,6,.61,1.7,1.77,3.08-5.24,3.06s-11.82,2.28-16.93.11-8-3.86-11.28-4.24-8.53,7.29-18.45,7c-12.73-.34-18.43.68-20.85,2.27s2.09,1.53-3,4.69c-2.41,1.5-8.51-7.86-11-5.16-4.6,5-9.85-1.09-9.85-1.09s-9.39-5.95-9.15-15c0-1.94-9.58.81-10.73-.23s6-.68,8.24-2.06c.73-.45-2.76-2.61-1-2.85,5.37-.73,6.66-3.48,1.51-5.11-5.48-1.69-12.87,4.67-12.26,1.84s4.64.93,8.29-4.55c2.39-3.58-8.94.29-6.86-3.53,1.25-2.3,8.7-.89,9.16-1.82s-8.91.07-8.33-1.44,10.3,1.35,8-1.86c-1.53-2.15.35-3.38-1.61-5s-6.79.13-9.67-1.53,3.16-1-1.22-3.27-12.06,2.41-11.65,3.7,7.12-.12,6.48,1.84c-1.27,3.91,6.3,6.17,4.39,7.55-4.51,3.27-5-4.53-13.7-3-3.19.56,3,2.65,2,4s-8.45-1.52-8.45-1.52-.87,1.26-3.69.43.27-2-1.94-2.95-13.1-2.93-15.48-1.43,1.78,6.66,6.18,7.47,12.78-1.63,12-.39c-3,4.69,4.31,1.35,4.52,2.27.29,1.33-2.38,2.75-1.84,4.19s6.34,3.34,4.66,4.31-5.2-2.71-7.29-3.5-5.46.35-5.7,1.11,5.25-.09,3.2,1.85-4.76,4.59-9.4,5.81-3.4-1.12-9.64,0c-2.92.51-1.6-1.68-4.55-1.44s-5.78,3.88-4.94,4.66c2.22,2,2.43.54,2.68.23,2.47-2.74,3.31-3.69,4.56-2.81,2.21,1.56-3.65,2.53-1.51,4.48s8.34,2.35,7.49,4.13-9.43-3.12-14.22-3.66-9,10.7-15.51,6.67c-2.23-1.35,4-.49,4.93-3.6s-16.3,1.17-23.17-.39c-8.13-1.85-7.41,1.36-10.54,1.87s-3.92-1.2-7.87-1.79-7.28,8.28-12,9.1,7.1-7.23,4.81-8-6.89,5.23-14,7.59c-4.79,1.59-7.81-4.89-14.56-.45,1,26.3,5.08,41.92,6.5,42.82s7.41-1.64,8.4.22c2.51,3.11,5.45,4.43,8.39,4.17s.68-2.67,6.39-3.69c1.91-.34-.33,3.47,4.43,4.26,8.77,1.47,7,4.14,12.3,6.53,7.07,3.21,14.64,3.39,15.3,5.62.38,1.29-1.89,8.17,2.62,8.88s2.71-4.95,5.33-3.63-3.2,3.09,5.29,5.3c1.28.34,4.4-2.8,5.3-2.31,2.54,1.38-2.46,5.07,1,7.1s19.11,4.31,21.41,3c1.11-.64,2.32-1.37,3.49-1.06,3.16.83-1.11,2.29,2.13,2.79,61.07-11.91,116.76-44.54,116.76-44.54s-1.92-2,.42-2.79,4.8,2.3,8.37.57,3.61-2.51,4.92-2.85,2.5,1.35,3.94.29,11.11-1.58,11.36-7.61c.09-2.25,20.87-3.14,22.89-4.17s1.1-2.24,3.15-2.43,4.77,1.5,7.57,1.32,6.89-1.21,9.42-.61,11.71,4,12.79,4.82-1.41,6.23,4.34,5.64,5.9-11.58,6-13.16-4.69-1.7-4.16-3.12,5.27-4.37,4.68-6.68-3.16-5.4-1.66-6.64,9.42-8.86,8.31-11.34-13.1-10.49-8.35-12.79,8.19,3.16,11.79,1.63c3.94-1.64,7.26,1.27,9.1-2.12s-3.15-9.12-.46-9.47c1.5-.2.1,3,2.68,2.79s1.23-6.11,3.49-3.9-4.31,7.22,1.06,10.13a6.73,6.73,0,0,0,7.39-.11c1.92-1.25-5.54-6.35-5.29-7.39s1,.51,2.65-.51-.93-3.76-2.29-5.54,2.13-7.19-1.39-8.72S390.5,246.62,383.94,246.44Z" transform="translate(-46.4 -191.01)"/><path class="cls-3" d="M146.38,375.41c-7,.48-20.64-5.29-20.76-2.37s25.64,6.7,27.89,5.68S152.73,375,146.38,375.41Z" transform="translate(-46.4 -191.01)"/><path class="cls-3" d="M96,361.41c-1.68,1.3,11.72,9.89,13.12,7.58-6.67-5.2-5.66-7.15-6.85-8.08S97.65,360.11,96,361.41Z" transform="translate(-46.4 -191.01)"/><path class="cls-3" d="M384.6,221.34c-5.58.56-5.89,1.81-9.19,5.86-5.54,6.81-19-4.53-19.52-1.17.2,1.63,5.2,6.46,11.69,9.16,6,2.51,3.69,7.27,6.72,4.5,1.43-1.4-.29-3.4,1.23-3s-.62,5.33,4.23,4.74c2.58-.3,6.56-8.19,5.29-9.07-2.52-1.72-1.2-4.18,2.38-3.69s1.22,6.2,5.36,4.25-4-5.5-2.25-6.62,7.31,1.48,8.46-1.19C400.38,221.88,390.17,220.76,384.6,221.34Z" transform="translate(-46.4 -191.01)"/><path class="cls-3" d="M278.41,272c-1.89-.23-4.48.64-3.7,2.56s4.35,1.71,6.36.6S280.29,272.27,278.41,272Z" transform="translate(-46.4 -191.01)"/><path class="cls-3" d="M291.12,286.8c-1,1-.06,1.7,1.05,1.92s5.3-1.17,5.67-1.81-1.59-1.4-2.83-1.4A5.91,5.91,0,0,0,291.12,286.8Z" transform="translate(-46.4 -191.01)"/><path class="cls-3" d="M236.07,261.56c.8.43,5.6,1.6,6.07.77s-4.23-3.54-5.57-3.22A1.37,1.37,0,0,0,236.07,261.56Z" transform="translate(-46.4 -191.01)"/><path class="cls-3" d="M225.25,264.6c-.61,1.31,3.13,3,4.59,2.65s2.16-3.2.82-3.88S225.85,263.3,225.25,264.6Z" transform="translate(-46.4 -191.01)"/><path class="cls-3" d="M227.63,258.49c-1.61-1.69-2.85,1.11-6.07.47s-15.64-.56-14.28,2.47c-.72,1.82-2.81-2.73-5.5-.53-1.3,1.12,7.64,3.15,9,4.36s0,3.37,1.47,4.07,1.45-1.9,3.12-2.17,3.83,3.41,6.61.67-4.65-4-3.73-4.88S229.24,260.18,227.63,258.49Z" transform="translate(-46.4 -191.01)"/><path class="cls-3" d="M169.43,233.48c-.25,1.26,2.3-.41,3,.63s-.15,1.83-1.12,2.33-3.38-.58-4.38.07,3.26,2.05,3,2.74c-.61,1.45-10.15-4-12.31-4.06s-4.06,1.27-3,1.75c3.42,1.63.93,3.17,7.64,4.87,3,.76,6.09,0,8.44.16,5.6.29,2.63,2.1.08,2.88-10.17,3.11-17-7-19-6.25-8.43,3.15,2.27,10.62,6.43,12.07,3.4,1.19,6.5-1.32,7.53-1.1s.11,3.62,4,2.15c1.46-.34,12.28-5.46,12.92-6.58s-1.85-4.43,0-5.93,7.47,2.5,14.19-.7c2.09-1-2.54,3.43,3.58,2.9,2-.18-2.7-1.79.48-4,2.46-1.69,4.41,2.63,12,1.14,2.91-.55,3.3,1.82,6.13,3.18,2.33,1.1,5.52,1.32,6.09,2.26,2.86,4.69-8.71,4.35-6.5,5.29,3.76,1.59,1.75,3.57,3.33,4.05s8.92-2.51,8.26-3.47-2-2.72-.25-3.46,1.95-2.19,3.7-2.22,1.14,1,2.37,1.09,4.27-1.88,6.73-2.17,2.28.41,3.63.19,3.87-3.44,6-4.51,4-.52,6.55-1.94c2-1.09,5.41-.26,5.94-1.37a1.05,1.05,0,0,0-1.24-1.47c-2.91,1.43-3.57,0-4.6,0s-1.18,1.06-3.44,2-8.38,2-9.36,1.61c-2.2-.84,1.59-.9,1.4-2.42-.1-.75,12.06-1.69,12.14-3.41.05-.44-4.69-.55-6.36-1.24s.23-1.14-1.37-1.75-3.34,1.2-5.72,1.28-2.06-1.3-3.37-1.27-2.2,2.21-3.44,2.55-12.26.45-12.77-1.11c-.87-2.71,14.41-1.55,15.4-4.25.41-1.17-4.91-1-5.09-1.84s2.18-.38,2.51-1.4c.19-.61-1.88-1.07-1.69-1.53s3.62-1.18,3.11-1.71-3.11-.58-4.37.31.27,1.09-.71,2-3.73.64-4,.53c-1.77-.71,1.8-2.92-.81-3.42s-1.59,2.42-2.51,2.83-2.67-.87-3.66-.5,2,1.1.75,1.75-3.6-.06-6,.54.33,2.05-5.58,4c-1.63.54-6.31-.09-7-.65s2.08-1.2,2.44-1.89c.54-1-.74-1.06-1.5-1s-3.28,2.65-4.66,2.69.1-1.43-1.2-2-2.72-1-3.8-.31,2.4,2.31,1.93,3.12-3.37,1.15-4.24.64c-1.57-.93.62-2.42-.23-3.05s-.62.75-2.2.46c-2.23-.38.55,1.89-1.33,3.1-3.21,2.07-4.4-.73-5.59-.89s-3.18,2-6.14,2.64-2-.54-3.53-.26-1.41,1-2.53,1.42S169.69,232.22,169.43,233.48Z" transform="translate(-46.4 -191.01)"/><path class="cls-3" d="M266.59,234.76a3.85,3.85,0,0,0,3-1c.37-.38.41-.78-.83-.94s-3.13-.13-3.38.39S265.3,234.51,266.59,234.76Z" transform="translate(-46.4 -191.01)"/><path class="cls-3" d="M236.73,254.28a6.64,6.64,0,0,0-4.47-.41c-1,.46-.34,1.23.53,1.64a5,5,0,0,0,3.2.23C237,255.46,237.52,254.83,236.73,254.28Z" transform="translate(-46.4 -191.01)"/><path class="cls-3" d="M210.44,243.6c1-.86,1.11-1.3-.74-2.37s-4.47-1.06-5.25.14S209.47,244.44,210.44,243.6Z" transform="translate(-46.4 -191.01)"/><path class="cls-3" d="M159.57,234.12c.65.75,4.42,2.47,5.47,2.06s.33-2,.73-2.7,2.61-.26,3.39-1.5-4.29-2.16-5.68-1.64S158.93,233.38,159.57,234.12Z" transform="translate(-46.4 -191.01)"/><path class="cls-3" d="M144.53,251.53c.27-1.05,2.93-.88,3.2-1.94s-3.08-5.32-4.76-5.4-9.74,2.8-6.93,5.11,7.89,5.42,9.47,5.25,2.55-.6,2-1.69S144.26,252.58,144.53,251.53Z" transform="translate(-46.4 -191.01)"/><path class="cls-3" d="M136.57,254.89c-3.81-.14-.91-3.95-2.91-4.14s-.95,1.65-2.59,2.58-1.87-.26-3.68.15-1.39,2,.49,2.64,5.9.1,6.48,1.28-2,.63-3.43.58c-2.18-.08-4,.86-1.88,1.9s5.33.43,7,.12c3.89-.68,6.22,2.17,7.06,1.43s3.17-3.38.06-6S138.25,255,136.57,254.89Z" transform="translate(-46.4 -191.01)"/><path class="cls-3" d="M152.41,269.43c1.14.92,9.63-1,11.19-2.49,1.17-1.11-.24-1.63-2.52-2.16s-7.75-.48-9.08.34,2.85,1.13,2.78,2.09S151.26,268.51,152.41,269.43Z" transform="translate(-46.4 -191.01)"/><path class="cls-3" d="M142.12,271.38c.61-1.42,6.18-1.42,6.35-2.61s-7.25-.47-12.31-1.52c-2.45-.51-6.5-2.22-8-3.55-2.31-2-9.53-3.11-10.19-1.66s10,4.37,7.3,6.58c-1.13.92-5.68-5.16-10.34-2.93-1.35.65,6.35,1.26-1,2.28-.72.09-1.19-1.38-3.62-1.08-2.72.34-2.26,1.75-3.43,1.74-1.49,0-1.68-5-6.45-.55s.16,3.29-.42,5.08a2.36,2.36,0,0,0,3.18,2.8c1.85-.73,5.83-2.57,6.72-1.42s-4.31,1.5-5,2.67.66,2.09,2.11,1.73,14.42-5.4,15.75-3.5-12.21,4.49-13.76,6.24c-.88,1,3,3,8.51,1.75,3.3-.77,6.79,1.07,8.12.6,3.08-1.07,6-2.35,7-3.77.42-.61-.48-1.68.13-2a12,12,0,0,0,2.79-1.61c.56-.58-1.59-1.53.38-2.08s5.07,1.57,7.5,0,5.32-1.13,6-1.65-.58-1.4-2.73-1.32S141.51,272.82,142.12,271.38Z" transform="translate(-46.4 -191.01)"/><path class="cls-3" d="M119.75,260c.81.62,4.54,1.4,5.34.79s-.22-2.91-2.89-2.89S118.94,259.38,119.75,260Z" transform="translate(-46.4 -191.01)"/><path class="cls-3" d="M88.38,278.24c1.6.47,3.82,1.42,4.47,3.7s1.53-1.12,4.94-3.38-2-4.12-2.07-6.81,4.13-4.15,4-5.66-1.46-1.55-3.3-1.53a7.41,7.41,0,0,0-3.32,1c-3.35,1-5.66-1.18-8.91.84s-.34,3.12-.1,4-1.35,1.33-1.23,2.56,3.42,1.19,3.12,2.94c-.2,1.12-3.39,1-2.16,2.24S86.78,277.79,88.38,278.24Z" transform="translate(-46.4 -191.01)"/><path class="cls-3" d="M133.37,245.37c.15-.4-.17-1.27-3.11-2s-6.23.47-6.18,1.48,3.28,2.72,4,1.95S133,246.36,133.37,245.37Z" transform="translate(-46.4 -191.01)"/><path class="cls-3" d="M91.9,258.44c.11,1.44,3.79,2.42,4.89,1.62s-1.52-1.79-.51-2.22,1.92.6,2.75.54,3.07-1.29,3.25-.26-3.6,2.66-2.83,3.29,4,.29,5.23-.58-.76-1.7.15-2.76a7.16,7.16,0,0,1,4.34-2.33c1.94-.3,4.72-.41,3-1.67s.89-2.51-1.54-3-4.92,1.23-6.92.69-1.11-2.16-2.22-2.23-3.68,1.88-2.87,2.8,8.16,1,6,2.62-11-2.21-13.09-1.2S91.78,257,91.9,258.44Z" transform="translate(-46.4 -191.01)"/><path class="cls-3" d="M85.14,258.92c1.58-1.21-2.16-1.52-1.15-3.31s8.84-2.54,5.66-3.27-1.15-2-3.61-2.09-6.28,4-6.28,4-3.91,3.9-2.7,5.27S83.56,260.13,85.14,258.92Z" transform="translate(-46.4 -191.01)"/><path class="cls-3" d="M94.49,250.39c2.07-1.13-.71-2.1-.55-2.94s3-1.34,1.12-2.41c-.58-.34-3.34-.56-6.07,2.75C87.86,249.17,92.42,251.53,94.49,250.39Z" transform="translate(-46.4 -191.01)"/><path class="cls-3" d="M92.73,243.69c1.52-.17,3.89.58,3.65-.17s-2.56-2.4-5.16-1.93-5.58,2.92-4.44,3.69S91.2,243.86,92.73,243.69Z" transform="translate(-46.4 -191.01)"/><path class="cls-3" d="M97.52,239.36c.88-.42.19-2.17-1.06-2.42s-2.56.63-2,1.64A2.57,2.57,0,0,0,97.52,239.36Z" transform="translate(-46.4 -191.01)"/><path class="cls-3" d="M99.82,233.11c.71-.59-.38-1.64-1.48-1.61s-1.53.5-1.44,1.13S99.11,233.68,99.82,233.11Z" transform="translate(-46.4 -191.01)"/><path class="cls-3" d="M100.5,239.17c1.5.8,8.67,1.47,9,.94s-2.32-1.64-3.32-3-6.36-1.54-7.47-1S99,238.39,100.5,239.17Z" transform="translate(-46.4 -191.01)"/><path class="cls-3" d="M110.93,238c1.93.12,3.66-1.18,2.92-1.67s-6-1-6.65-.49S109,237.89,110.93,238Z" transform="translate(-46.4 -191.01)"/><path class="cls-3" d="M118.62,237.65c.64-.63-.34-1.65-2-1s-3.67,2.19-2.46,2.35A8.9,8.9,0,0,0,118.62,237.65Z" transform="translate(-46.4 -191.01)"/><path class="cls-3" d="M104.83,245.75c1-.38-1.21-2.68-1.77-3.2s-2.24-1.28-3-.41S103.8,246.13,104.83,245.75Z" transform="translate(-46.4 -191.01)"/><path class="cls-3" d="M117.34,245.87c-.45.84-4.38-1.17-5-.73s3.22,2.34,3.2,2.79-1.56,1.64-.43,1.94,2.65-2.47,3.81-2.14-.47,1.05.8,1.76A5.29,5.29,0,0,0,125,249c1.9-1.24-3.14-1.64-3.12-2.85s-3.1-3.44-4.51-3.89-3.06.57-2.81,1.56S117.79,245,117.34,245.87Z" transform="translate(-46.4 -191.01)"/><path class="cls-3" d="M142,240.54c2.83-.17,3.53-.06,5.38-1.27s0-2.31.62-3.45,2.28-.8,3.2-1.84.42-3-1.78-4-8.5,2.21-9.08,2.57c-1.82,1.27-.65,2.65-3.65,4.79a5.43,5.43,0,0,1-4.33.95c-.85,0-1.16-.8-2.51-1.3a7.94,7.94,0,0,0-4.43.13c-.83.33-.63.87-1.56,1.64s-5.39.06-5.64,1.34,4.22,3.32,5.1,1.71a4,4,0,0,1,4.23-2.44c3.55.36,5.79,3.21,8.63,3.19S139.17,240.72,142,240.54Z" transform="translate(-46.4 -191.01)"/><path class="cls-3" d="M104.83,222.73c4.41-1.61,5.08-7.68,7-7.57s-1.2,3.82.25,4.49,3.93-.34,4.59,1.24-6.16-.68-8.08,1.63c-1.27,1.52,6,1.16,7.61,2.43s2.76-2.34,4.24-1.77-2.15,3.12-1.76,4.83a2.26,2.26,0,0,0,3.14,1.53c.82-.5-.76-1.81.22-2.27s2,1.46,2.63,1.5c1.65.11,2.79-.4,2.34-1.25s-2.28-1-2.06-1.47c.6-1.34,1.51-.53,2.06-.24s4.18,1.91,3.44,2.84-3.85,1.89-6.19,1.64-1.7.94-1.42,1.44,4.5-1.15,5.81-.42-2.12,1.36-2.13,2.27,2.18,2.48,2.62,2.09c1.86-1.67,2,.11,2.95-.48s1.7-3.48,4-4.69,5.53-.26,6.64-2.58-5.29-2.37-6.43-2.75-1.21-2.36-1.21-2.36-3.5-3.52-5.89-3.49-1.79.93-2.87.81a2.43,2.43,0,0,1-2.05-1.19c-.42-.66,2.42-1.05,1.68-2.82s-4.12-1.17-5-2.2.79-1,.81-1.42c.06-.9-2.13-1.6-3.57-2.65s-.71-2.23-4.12-2.68c-.87-.1-1,1.45-2.23.84s1.37-2.79,0-3.32-5.09.22-7,2.37c-.71.78-3.48.28-4.78,1.06s-.28,1.76-1.35,2.95-3,.83-3.6,1.7,1.46,2.14,1.94,2.81c1.69,2.4-2.34,4.24-1.05,5.54S103,223.39,104.83,222.73Z" transform="translate(-46.4 -191.01)"/><path class="cls-3" d="M110.45,230.19c1.58.94.26,2.23,2.87,2.92s5.68.22,6.05-.67-3.13-2.25-3.26-3.36,1.6-1.68-.21-2.89a14.73,14.73,0,0,0-7.07-1.83c-1.79,0-1.28.5-4.32.92-5.37.75-5.43-3.24-7.31-1.93s2.7,5.67,4.8,6.13S108.87,229.25,110.45,230.19Z" transform="translate(-46.4 -191.01)"/><path class="cls-3" d="M366.55,245.76c-.69-.41-3.37.49-6,2s-4.15,3-3.45,3.44,3.37-.48,6-2S367.25,246.16,366.55,245.76Z" transform="translate(-46.4 -191.01)"/><path class="cls-3" d="M383.36,256.19c2-1.16,2.92-2.52,2-3.05s-3.27,0-5.28,1.18-2.94,2.53-2.05,3.06S381.33,257.37,383.36,256.19Z" transform="translate(-46.4 -191.01)"/><path class="cls-4" d="M206.59,294.06a4.91,4.91,0,0,1-4.42,0,1.35,1.35,0,0,1,0-2.56,4.91,4.91,0,0,1,4.42,0A1.35,1.35,0,0,1,206.59,294.06Z" transform="translate(-46.4 -191.01)"/><path class="cls-5" d="M204.66,290v-.13h-.09a.5.5,0,0,0-.38,0h-.1l-.19,2.85a.22.22,0,0,0,.14.22.74.74,0,0,0,.68,0,.23.23,0,0,0,.14-.23Z" transform="translate(-46.4 -191.01)"/><path class="cls-6" d="M204.37,286a3.09,3.09,0,1,0,3.09,3.09A3.09,3.09,0,0,0,204.37,286Z" transform="translate(-46.4 -191.01)"/><path class="cls-4" d="M211.58,304.31a4.94,4.94,0,0,1-4.43,0,1.35,1.35,0,0,1,0-2.56,4.91,4.91,0,0,1,4.42,0A1.35,1.35,0,0,1,211.58,304.31Z" transform="translate(-46.4 -191.01)"/><path class="cls-5" d="M209.65,300.28v-.13h-.1a.5.5,0,0,0-.38,0h-.09s-.2,2.85-.19,2.85,0,.16.13.23a.81.81,0,0,0,.68,0c.11-.07.16-.15.14-.24Z" transform="translate(-46.4 -191.01)"/><path class="cls-7" d="M209.35,296.2a3.09,3.09,0,1,0,3.09,3.09A3.08,3.08,0,0,0,209.35,296.2Z" transform="translate(-46.4 -191.01)"/><path class="cls-4" d="M344.86,271.37a5.7,5.7,0,0,1-5.15,0c-1.42-.82-1.42-2.15,0-3a5.7,5.7,0,0,1,5.15,0C346.28,269.22,346.28,270.55,344.86,271.37Z" transform="translate(-46.4 -191.01)"/><path class="cls-5" d="M342.58,261v-.13h-.1a.47.47,0,0,0-.4,0H342l-.2,9.25a.24.24,0,0,0,.15.23.81.81,0,0,0,.71,0,.25.25,0,0,0,.15-.24Z" transform="translate(-46.4 -191.01)"/><rect class="cls-8" x="292.82" y="63.48" width="6.12" height="10.51" rx="3.03"/><path class="cls-4" d="M322.69,241.89a5.7,5.7,0,0,1-5.15,0c-1.42-.82-1.42-2.15,0-3a5.7,5.7,0,0,1,5.15,0C324.11,239.74,324.11,241.07,322.69,241.89Z" transform="translate(-46.4 -191.01)"/><path class="cls-5" d="M320.42,231.47v-.13h-.1a.47.47,0,0,0-.4,0h-.1l-.2,9.25a.24.24,0,0,0,.15.23.75.75,0,0,0,.71,0,.23.23,0,0,0,.15-.24Z" transform="translate(-46.4 -191.01)"/><rect class="cls-9" x="270.65" y="34" width="6.12" height="10.51" rx="3.03"/><path class="cls-4" d="M302.9,238.4a5.7,5.7,0,0,1-5.15,0c-1.42-.82-1.42-2.15,0-3a5.68,5.68,0,0,1,5.14,0C304.31,236.25,304.32,237.58,302.9,238.4Z" transform="translate(-46.4 -191.01)"/><path class="cls-5" d="M300.62,228v-.13h-.1a.47.47,0,0,0-.4,0H300l-.2,9.25a.23.23,0,0,0,.14.23.77.77,0,0,0,.72,0,.22.22,0,0,0,.14-.24Z" transform="translate(-46.4 -191.01)"/><rect class="cls-10" x="250.86" y="30.51" width="6.12" height="10.51" rx="3.03"/><path class="cls-4" d="M294.58,245.89a5.7,5.7,0,0,1-5.15,0c-1.42-.82-1.42-2.15,0-3a5.68,5.68,0,0,1,5.14,0C296,243.74,296,245.07,294.58,245.89Z" transform="translate(-46.4 -191.01)"/><path class="cls-5" d="M292.3,235.47v-.13h-.1a.55.55,0,0,0-.4,0h-.1l-.2,9.26a.24.24,0,0,0,.14.23.83.83,0,0,0,.72,0c.11-.07.16-.16.14-.24Z" transform="translate(-46.4 -191.01)"/><rect class="cls-11" x="242.54" y="38" width="6.12" height="10.51" rx="3.03"/><path class="cls-4" d="M256.33,255.06a5.62,5.62,0,0,1-5.14,0c-1.42-.81-1.42-2.15,0-3a5.68,5.68,0,0,1,5.14,0C257.75,252.91,257.75,254.25,256.33,255.06Z" transform="translate(-46.4 -191.01)"/><path class="cls-5" d="M254.06,244.65v-.13H254a.47.47,0,0,0-.4,0h-.1s-.2,9.24-.2,9.25,0,.17.14.23a.77.77,0,0,0,.72,0,.23.23,0,0,0,.14-.24Z" transform="translate(-46.4 -191.01)"/><rect class="cls-12" x="204.29" y="47.18" width="6.12" height="10.51" rx="3.03"/><path class="cls-4" d="M327.23,281.76a4.87,4.87,0,0,1-4.43,0,1.35,1.35,0,0,1,0-2.55,4.85,4.85,0,0,1,4.42,0A1.34,1.34,0,0,1,327.23,281.76Z" transform="translate(-46.4 -191.01)"/><path class="cls-5" d="M325.3,277.73v-.12h-.1a.42.42,0,0,0-.38,0h-.1l-.18,2.85c0,.08,0,.16.13.22a.74.74,0,0,0,.68,0,.23.23,0,0,0,.14-.23Z" transform="translate(-46.4 -191.01)"/><path class="cls-13" d="M325,273.66a3.09,3.09,0,1,0,3.09,3.08A3.08,3.08,0,0,0,325,273.66Z" transform="translate(-46.4 -191.01)"/><path class="cls-14" d="M191.24,267.85a13.94,13.94,0,0,1-12.67,0c-3.49-2-3.49-5.29,0-7.31a14.06,14.06,0,0,1,12.67,0C194.73,262.56,194.73,265.84,191.24,267.85Z" transform="translate(-46.4 -191.01)"/><polygon class="cls-15" points="137.02 30.63 137.66 31 137.66 71.93 137.12 72.24 136.48 30.94 137.02 30.63"/><polygon class="cls-3" points="136.48 30.94 137.12 31.31 137.12 72.24 133.89 70.38 136.48 30.94"/><polygon class="cls-15" points="140.38 30.63 139.75 31 139.75 71.93 140.28 72.24 140.92 30.94 140.38 30.63"/><polygon class="cls-15" points="140.92 30.94 140.28 31.31 140.28 72.24 143.52 70.38 140.92 30.94"/><path class="cls-16" d="M186.43,262.7h-2.9v1.09a.72.72,0,0,0,.42.59,2.25,2.25,0,0,0,2.05,0,.71.71,0,0,0,.43-.59h0Z" transform="translate(-46.4 -191.01)"/><path class="cls-17" d="M186,263.29a2.25,2.25,0,0,1-2.05,0c-.57-.33-.57-.86,0-1.18a2.25,2.25,0,0,1,2.05,0C186.57,262.43,186.57,263,186,263.29Z" transform="translate(-46.4 -191.01)"/><path class="cls-3" d="M185.88,222.49h-1.8l-.55,40.21a.72.72,0,0,0,.42.59,2.25,2.25,0,0,0,2.05,0,.71.71,0,0,0,.43-.59h0Z" transform="translate(-46.4 -191.01)"/><path class="cls-18" d="M185.61,222.86a1.42,1.42,0,0,1-1.27,0,.39.39,0,0,1,0-.73,1.36,1.36,0,0,1,1.27,0A.39.39,0,0,1,185.61,222.86Z" transform="translate(-46.4 -191.01)"/><polygon class="cls-18" points="136.78 32.63 137.42 32.26 137.94 32.55 134.71 75.36 134.19 75.06 136.78 32.63"/><polygon class="cls-15" points="137.3 32.92 137.94 32.55 137.94 73.49 134.71 75.36 137.3 32.92"/><polygon class="cls-3" points="140.44 32.63 139.8 32.26 139.28 32.55 142.52 75.36 143.03 75.06 140.44 32.63"/><polygon class="cls-18" points="139.92 32.92 139.28 32.55 139.28 73.49 142.52 75.36 139.92 32.92"/><path class="cls-15" d="M188.59,223.61l.07-.11,0,0,0-.06a4.18,4.18,0,0,0,.07-3.13c0-.11-.83.34-1.46.72a6.26,6.26,0,0,0-4.66,0c-.63-.38-1.43-.83-1.47-.72a4.23,4.23,0,0,0,.07,3.13,2.35,2.35,0,0,0,1,1,6,6,0,0,0,5.48,0,2.62,2.62,0,0,0,.85-.74h0Z" transform="translate(-46.4 -191.01)"/><path class="cls-18" d="M187.73,222.31a6.08,6.08,0,0,1-5.48,0c-1.52-.88-1.52-2.3,0-3.17a6,6,0,0,1,5.48,0C189.24,220,189.24,221.43,187.73,222.31Z" transform="translate(-46.4 -191.01)"/><path class="cls-3" d="M190.69,219.21h-11.4v.64a2.83,2.83,0,0,0,1.67,2.32,8.88,8.88,0,0,0,8.06,0,2.83,2.83,0,0,0,1.67-2.32h0Z" transform="translate(-46.4 -191.01)"/><path class="cls-18" d="M189,221.53a8.88,8.88,0,0,1-8.06,0c-2.23-1.28-2.23-3.36,0-4.65a8.94,8.94,0,0,1,8.06,0C191.24,218.17,191.24,220.25,189,221.53Z" transform="translate(-46.4 -191.01)"/><path class="cls-18" d="M190.41,218.47H179.57v.61a2.66,2.66,0,0,0,1.58,2.21,8.43,8.43,0,0,0,7.67,0,2.69,2.69,0,0,0,1.59-2.21h0Z" transform="translate(-46.4 -191.01)"/><path class="cls-17" d="M188.82,220.68a8.43,8.43,0,0,1-7.67,0c-2.12-1.22-2.12-3.2,0-4.42a8.43,8.43,0,0,1,7.67,0C190.94,217.48,190.94,219.46,188.82,220.68Z" transform="translate(-46.4 -191.01)"/><path class="cls-3" d="M190.69,217.82h-11.4v.64a2.86,2.86,0,0,0,1.67,2.33,8.94,8.94,0,0,0,8.06,0,2.86,2.86,0,0,0,1.67-2.33h0Z" transform="translate(-46.4 -191.01)"/><path class="cls-18" d="M189,220.15a8.94,8.94,0,0,1-8.06,0c-2.23-1.29-2.23-3.37,0-4.66a8.94,8.94,0,0,1,8.06,0C191.24,216.78,191.24,218.86,189,220.15Z" transform="translate(-46.4 -191.01)"/><path class="cls-18" d="M190.41,217.06H179.57v.61a2.67,2.67,0,0,0,1.58,2.22,8.49,8.49,0,0,0,7.67,0,2.7,2.7,0,0,0,1.59-2.22h0Z" transform="translate(-46.4 -191.01)"/><path class="cls-17" d="M188.82,219.28a8.49,8.49,0,0,1-7.67,0c-2.12-1.22-2.12-3.21,0-4.43a8.49,8.49,0,0,1,7.67,0C190.94,216.07,190.94,218.06,188.82,219.28Z" transform="translate(-46.4 -191.01)"/><path class="cls-3" d="M189.54,214.87l-.68-.61h-.36a9.3,9.3,0,0,0-7,0h-.35l-.7.62a4.55,4.55,0,0,0-.46.4h0c-1.21,1.26-.89,2.88,1,3.95a8.94,8.94,0,0,0,8.12,0C191.11,218,191.27,216.17,189.54,214.87Z" transform="translate(-46.4 -191.01)"/><path class="cls-19" d="M188.87,214.1h-7.76v.24a1.92,1.92,0,0,0,1.14,1.59,6.08,6.08,0,0,0,5.48,0,1.94,1.94,0,0,0,1.14-1.59h0Z" transform="translate(-46.4 -191.01)"/><path class="cls-17" d="M187.73,215.68a6.08,6.08,0,0,1-5.48,0c-1.52-.87-1.52-2.29,0-3.17a6.08,6.08,0,0,1,5.48,0C189.25,213.39,189.25,214.81,187.73,215.68Z" transform="translate(-46.4 -191.01)"/><path class="cls-18" d="M188.87,213.22h-7.76v.88a1.91,1.91,0,0,0,1.14,1.58,6,6,0,0,0,5.48,0,1.93,1.93,0,0,0,1.14-1.58h0Z" transform="translate(-46.4 -191.01)"/><path class="cls-18" d="M187.73,214.81a6.08,6.08,0,0,1-5.48,0c-1.52-.88-1.52-2.3,0-3.17a6.08,6.08,0,0,1,5.48,0C189.25,212.51,189.25,213.93,187.73,214.81Z" transform="translate(-46.4 -191.01)"/><path class="cls-3" d="M185.83,204.46h-1.69v8.83a.42.42,0,0,0,.25.35,1.33,1.33,0,0,0,1.2,0,.43.43,0,0,0,.24-.35h0Z" transform="translate(-46.4 -191.01)"/><path class="cls-18" d="M185.59,204.81a1.33,1.33,0,0,1-1.2,0,.36.36,0,0,1,0-.69,1.33,1.33,0,0,1,1.2,0A.37.37,0,0,1,185.59,204.81Z" transform="translate(-46.4 -191.01)"/><path class="cls-16" d="M186.16,203.71h-2.34v.86a.57.57,0,0,0,.34.48,1.84,1.84,0,0,0,1.65,0,.58.58,0,0,0,.35-.48h0Z" transform="translate(-46.4 -191.01)"/><path class="cls-17" d="M185.81,204.19a1.84,1.84,0,0,1-1.65,0c-.46-.26-.46-.69,0-1a1.84,1.84,0,0,1,1.65,0C186.27,203.5,186.27,203.93,185.81,204.19Z" transform="translate(-46.4 -191.01)"/><path class="cls-3" d="M186.08,203.46l-.54-.85-.55.11-.56-.11-.54.85s0,0,0,0h0c-.14.23,0,.51.28.69a1.8,1.8,0,0,0,1.66,0C186.15,204,186.24,203.7,186.08,203.46Z" transform="translate(-46.4 -191.01)"/><path class="cls-18" d="M185.41,203a1,1,0,0,1-.84,0,.26.26,0,0,1,0-.49,1,1,0,0,1,.84,0A.26.26,0,0,1,185.41,203Z" transform="translate(-46.4 -191.01)"/><path class="cls-3" d="M185.36,197.26h-.75v5.44a.19.19,0,0,0,.11.15.62.62,0,0,0,.53,0,.19.19,0,0,0,.11-.15h0Z" transform="translate(-46.4 -191.01)"/><path class="cls-18" d="M185.25,197.42a.62.62,0,0,1-.53,0,.17.17,0,0,1,0-.31.62.62,0,0,1,.53,0C185.4,197.2,185.4,197.33,185.25,197.42Z" transform="translate(-46.4 -191.01)"/><path class="cls-16" d="M185.3,197h-.63v.23a.15.15,0,0,0,.09.13.51.51,0,0,0,.45,0,.15.15,0,0,0,.09-.13h0Z" transform="translate(-46.4 -191.01)"/><path class="cls-17" d="M185.21,197.15a.51.51,0,0,1-.45,0,.14.14,0,0,1,0-.26.51.51,0,0,1,.45,0A.14.14,0,0,1,185.21,197.15Z" transform="translate(-46.4 -191.01)"/><path class="cls-3" d="M185.3,194.25h-.63V197s0,.09.09.13a.51.51,0,0,0,.45,0c.06,0,.09-.08.09-.13h0Z" transform="translate(-46.4 -191.01)"/><path class="cls-18" d="M185.21,194.38a.51.51,0,0,1-.45,0,.14.14,0,0,1,0-.26.51.51,0,0,1,.45,0A.14.14,0,0,1,185.21,194.38Z" transform="translate(-46.4 -191.01)"/><path class="cls-16" d="M185.27,194h-.57v.2a.14.14,0,0,0,.09.12.47.47,0,0,0,.4,0,.14.14,0,0,0,.08-.12h0Z" transform="translate(-46.4 -191.01)"/><path class="cls-17" d="M185.19,194.14a.41.41,0,0,1-.4,0c-.11-.06-.11-.16,0-.23a.47.47,0,0,1,.4,0C185.3,194,185.3,194.08,185.19,194.14Z" transform="translate(-46.4 -191.01)"/><path class="cls-3" d="M185.27,192.29h-.57V194s0,.08.09.11a.41.41,0,0,0,.4,0,.14.14,0,0,0,.08-.11h0Z" transform="translate(-46.4 -191.01)"/><path class="cls-18" d="M185.19,192.41a.47.47,0,0,1-.4,0c-.11-.07-.11-.17,0-.23a.41.41,0,0,1,.4,0C185.3,192.24,185.3,192.34,185.19,192.41Z" transform="translate(-46.4 -191.01)"/><path class="cls-16" d="M185.18,191.12h-.38v1.17s0,.05,0,.08a.32.32,0,0,0,.27,0s.06-.05.06-.08h0Z" transform="translate(-46.4 -191.01)"/><path class="cls-17" d="M185.12,191.2a.32.32,0,0,1-.27,0c-.07,0-.07-.11,0-.16a.32.32,0,0,1,.27,0C185.2,191.09,185.2,191.16,185.12,191.2Z" transform="translate(-46.4 -191.01)"/><path class="cls-4" d="M313,245.92a4.94,4.94,0,0,1-4.43,0,1.35,1.35,0,0,1,0-2.56,4.94,4.94,0,0,1,4.43,0A1.35,1.35,0,0,1,313,245.92Z" transform="translate(-46.4 -191.01)"/><path class="cls-5" d="M311.11,241.89v-.13H311a.5.5,0,0,0-.38,0h-.09l-.19,2.85a.24.24,0,0,0,.14.23.81.81,0,0,0,.68,0c.11-.07.15-.15.13-.24Z" transform="translate(-46.4 -191.01)"/><path class="cls-20" d="M310.82,237.81a3.09,3.09,0,1,0,3.08,3.09A3.09,3.09,0,0,0,310.82,237.81Z" transform="translate(-46.4 -191.01)"/><path class="cls-4" d="M264.86,252.14a4.91,4.91,0,0,1-4.42,0,1.35,1.35,0,0,1,0-2.56,4.91,4.91,0,0,1,4.42,0A1.35,1.35,0,0,1,264.86,252.14Z" transform="translate(-46.4 -191.01)"/><path class="cls-5" d="M262.93,248.11V248h-.09a.5.5,0,0,0-.38,0h-.1l-.19,2.85a.24.24,0,0,0,.14.23.81.81,0,0,0,.68,0c.11-.07.15-.15.13-.24Z" transform="translate(-46.4 -191.01)"/><path class="cls-21" d="M262.64,244a3.09,3.09,0,1,0,3.08,3.09A3.09,3.09,0,0,0,262.64,244Z" transform="translate(-46.4 -191.01)"/><path class="cls-4" d="M200.05,234a4.87,4.87,0,0,1-4.43,0,1.35,1.35,0,0,1,0-2.55,4.85,4.85,0,0,1,4.42,0A1.34,1.34,0,0,1,200.05,234Z" transform="translate(-46.4 -191.01)"/><path class="cls-5" d="M198.12,230v-.12H198a.42.42,0,0,0-.38,0h-.1l-.19,2.85a.24.24,0,0,0,.14.22.81.81,0,0,0,.68,0,.24.24,0,0,0,.14-.23Z" transform="translate(-46.4 -191.01)"/><path class="cls-22" d="M197.82,225.87a3.09,3.09,0,1,0,3.09,3.09A3.08,3.08,0,0,0,197.82,225.87Z" transform="translate(-46.4 -191.01)"/><path class="cls-4" d="M179.61,238.6a4.94,4.94,0,0,1-4.43,0,1.35,1.35,0,0,1,0-2.56,4.94,4.94,0,0,1,4.43,0A1.35,1.35,0,0,1,179.61,238.6Z" transform="translate(-46.4 -191.01)"/><path class="cls-5" d="M177.68,234.57v-.13h-.1a.5.5,0,0,0-.38,0h-.09l-.19,2.85a.25.25,0,0,0,.13.23.81.81,0,0,0,.68,0c.11-.07.16-.15.14-.23Z" transform="translate(-46.4 -191.01)"/><path class="cls-23" d="M177.39,230.49a3.09,3.09,0,1,0,3.08,3.09A3.09,3.09,0,0,0,177.39,230.49Z" transform="translate(-46.4 -191.01)"/><path class="cls-4" d="M222.39,303.66a5.68,5.68,0,0,1-5.14,0c-1.43-.82-1.43-2.15,0-3a5.68,5.68,0,0,1,5.14,0C223.81,301.51,223.81,302.84,222.39,303.66Z" transform="translate(-46.4 -191.01)"/><path class="cls-5" d="M220.12,293.24v-.13H220a.49.49,0,0,0-.41,0h-.09s-.21,9.25-.2,9.25,0,.17.14.24a.83.83,0,0,0,.72,0,.24.24,0,0,0,.14-.25Z" transform="translate(-46.4 -191.01)"/><path class="cls-24" d="M219.85,286.79h-.06a3,3,0,0,0-3,3v4.45a3,3,0,0,0,3,3h.06a3,3,0,0,0,3-3v-4.45A3,3,0,0,0,219.85,286.79Z" transform="translate(-46.4 -191.01)"/><path class="cls-4" d="M261.55,330.71a5.7,5.7,0,0,1-5.15,0c-1.42-.82-1.42-2.16,0-3a5.7,5.7,0,0,1,5.15,0C263,328.55,263,329.89,261.55,330.71Z" transform="translate(-46.4 -191.01)"/><path class="cls-5" d="M259.27,320.29v-.13h-.1a.47.47,0,0,0-.4,0h-.1s-.2,9.24-.2,9.25a.23.23,0,0,0,.15.23.75.75,0,0,0,.71,0,.21.21,0,0,0,.14-.24Z" transform="translate(-46.4 -191.01)"/><rect class="cls-25" x="209.51" y="122.82" width="6.12" height="10.51" rx="3.03"/><path class="cls-4" d="M243.86,311.43a5.7,5.7,0,0,1-5.15,0c-1.42-.82-1.42-2.15,0-3a5.7,5.7,0,0,1,5.15,0C245.28,309.28,245.28,310.61,243.86,311.43Z" transform="translate(-46.4 -191.01)"/><path class="cls-5" d="M241.58,301v-.13h-.1a.47.47,0,0,0-.4,0H241l-.2,9.25a.23.23,0,0,0,.14.23.83.83,0,0,0,.72,0c.12-.07.16-.16.14-.24Z" transform="translate(-46.4 -191.01)"/><rect class="cls-26" x="191.82" y="103.55" width="6.12" height="10.51" rx="3.03"/><path class="cls-4" d="M287,291.58a5.68,5.68,0,0,1-5.14,0c-1.42-.82-1.42-2.15,0-3a5.68,5.68,0,0,1,5.14,0C288.4,289.43,288.4,290.76,287,291.58Z" transform="translate(-46.4 -191.01)"/><path class="cls-5" d="M284.71,281.16V281h-.1a.47.47,0,0,0-.4,0h-.1l-.2,9.25c0,.09,0,.17.14.23a.77.77,0,0,0,.72,0,.22.22,0,0,0,.14-.24Z" transform="translate(-46.4 -191.01)"/><rect class="cls-27" x="234.94" y="83.69" width="6.12" height="10.51" rx="3.03"/><path class="cls-4" d="M296.86,277.8a5.7,5.7,0,0,1-5.15,0c-1.42-.82-1.42-2.15,0-3a5.7,5.7,0,0,1,5.15,0C298.28,275.65,298.28,277,296.86,277.8Z" transform="translate(-46.4 -191.01)"/><path class="cls-5" d="M294.59,267.38v-.13h-.09a.49.49,0,0,0-.41,0H294l-.2,9.25a.26.26,0,0,0,.15.24.8.8,0,0,0,.71,0,.25.25,0,0,0,.15-.25Z" transform="translate(-46.4 -191.01)"/><rect class="cls-28" x="244.82" y="69.91" width="6.12" height="10.51" rx="3.03"/><path class="cls-4" d="M302.9,299.1a5.7,5.7,0,0,1-5.15,0c-1.42-.82-1.42-2.15,0-3a5.68,5.68,0,0,1,5.14,0C304.31,297,304.32,298.28,302.9,299.1Z" transform="translate(-46.4 -191.01)"/><path class="cls-5" d="M300.62,288.69v-.14h-.1a.55.55,0,0,0-.4,0H300l-.2,9.26a.23.23,0,0,0,.14.23.83.83,0,0,0,.72,0c.11-.07.16-.16.14-.24Z" transform="translate(-46.4 -191.01)"/><rect class="cls-29" x="250.86" y="91.22" width="6.12" height="10.51" rx="3.03"/><path class="cls-4" d="M368.37,284.43a5.7,5.7,0,0,1-5.15,0c-1.42-.82-1.42-2.15,0-3a5.7,5.7,0,0,1,5.15,0C369.79,282.28,369.79,283.61,368.37,284.43Z" transform="translate(-46.4 -191.01)"/><path class="cls-5" d="M366.09,274v-.13H366a.47.47,0,0,0-.4,0h-.1l-.2,9.25a.24.24,0,0,0,.15.23.75.75,0,0,0,.71,0,.21.21,0,0,0,.14-.24Z" transform="translate(-46.4 -191.01)"/><rect class="cls-30" x="316.33" y="76.54" width="6.12" height="10.51" rx="3.03"/><path class="cls-4" d="M352.05,228.64a5.68,5.68,0,0,1-5.14,0c-1.42-.82-1.42-2.15,0-3a5.68,5.68,0,0,1,5.14,0C353.47,226.49,353.47,227.82,352.05,228.64Z" transform="translate(-46.4 -191.01)"/><path class="cls-5" d="M349.78,218.22v-.13h-.1a.47.47,0,0,0-.4,0h-.1l-.2,9.25a.25.25,0,0,0,.14.24.83.83,0,0,0,.72,0,.23.23,0,0,0,.14-.25Z" transform="translate(-46.4 -191.01)"/><rect class="cls-31" x="300.02" y="20.75" width="6.12" height="10.51" rx="3.03"/><path class="cls-4" d="M348.42,247.13a5.7,5.7,0,0,1-5.15,0c-1.42-.82-1.42-2.15,0-3a5.7,5.7,0,0,1,5.15,0C349.83,245,349.84,246.31,348.42,247.13Z" transform="translate(-46.4 -191.01)"/><path class="cls-5" d="M346.14,236.71v-.13H346a.47.47,0,0,0-.4,0h-.1l-.2,9.25a.23.23,0,0,0,.14.23.76.76,0,0,0,.72,0,.21.21,0,0,0,.14-.24Z" transform="translate(-46.4 -191.01)"/><rect class="cls-32" x="296.38" y="39.24" width="6.12" height="10.51" rx="3.03"/><path class="cls-4" d="M204.94,270.83a5.68,5.68,0,0,1-5.14,0c-1.42-.82-1.42-2.15,0-3a5.68,5.68,0,0,1,5.14,0C206.36,268.68,206.36,270,204.94,270.83Z" transform="translate(-46.4 -191.01)"/><path class="cls-5" d="M202.67,260.41v-.13h-.1a.47.47,0,0,0-.4,0h-.1l-.2,9.25c0,.08,0,.17.14.23a.76.76,0,0,0,.72,0,.22.22,0,0,0,.14-.24Z" transform="translate(-46.4 -191.01)"/><rect class="cls-33" x="152.9" y="62.94" width="6.12" height="10.51" rx="3.03"/><path class="cls-4" d="M197.35,254.35a5.7,5.7,0,0,1-5.15,0c-1.42-.82-1.42-2.15,0-3a5.7,5.7,0,0,1,5.15,0C198.77,252.2,198.77,253.53,197.35,254.35Z" transform="translate(-46.4 -191.01)"/><path class="cls-5" d="M195.07,243.94v-.14H195a.55.55,0,0,0-.4,0h-.1l-.2,9.26a.23.23,0,0,0,.14.23.83.83,0,0,0,.72,0c.12-.07.16-.16.14-.24Z" transform="translate(-46.4 -191.01)"/><rect class="cls-34" x="145.31" y="46.47" width="6.12" height="10.51" rx="3.03"/><path class="cls-4" d="M245.56,240.49a5.7,5.7,0,0,1-5.15,0c-1.42-.82-1.42-2.16,0-3a5.7,5.7,0,0,1,5.15,0C247,238.33,247,239.67,245.56,240.49Z" transform="translate(-46.4 -191.01)"/><path class="cls-5" d="M243.28,230.07v-.13h-.1a.47.47,0,0,0-.4,0h-.1l-.2,9.25a.23.23,0,0,0,.14.23.77.77,0,0,0,.72,0,.21.21,0,0,0,.14-.24Z" transform="translate(-46.4 -191.01)"/><rect class="cls-35" x="193.52" y="32.6" width="6.12" height="10.51" rx="3.03"/><path class="cls-4" d="M122.09,218.94a5.7,5.7,0,0,1-5.15,0c-1.42-.82-1.42-2.15,0-3a5.7,5.7,0,0,1,5.15,0C123.51,216.79,123.51,218.12,122.09,218.94Z" transform="translate(-46.4 -191.01)"/><path class="cls-5" d="M119.81,208.52v-.13h-.1a.47.47,0,0,0-.4,0h-.1l-.2,9.25a.24.24,0,0,0,.15.24.8.8,0,0,0,.71,0,.23.23,0,0,0,.14-.25Z" transform="translate(-46.4 -191.01)"/><rect class="cls-36" x="70.05" y="11.05" width="6.12" height="10.51" rx="3.03"/><path class="cls-4" d="M132.89,225a5.68,5.68,0,0,1-5.14,0c-1.43-.82-1.43-2.15,0-3a5.68,5.68,0,0,1,5.14,0C134.31,222.87,134.31,224.2,132.89,225Z" transform="translate(-46.4 -191.01)"/><path class="cls-5" d="M130.62,214.6v-.13h-.09a.49.49,0,0,0-.41,0H130s-.21,9.24-.2,9.25,0,.17.14.23a.75.75,0,0,0,.71,0c.12-.06.17-.15.15-.24Z" transform="translate(-46.4 -191.01)"/><rect class="cls-37" x="80.85" y="17.13" width="6.12" height="10.51" rx="3.03"/><path class="cls-4" d="M235,302.66a4.94,4.94,0,0,1-4.43,0,1.35,1.35,0,0,1,0-2.56,4.94,4.94,0,0,1,4.43,0A1.35,1.35,0,0,1,235,302.66Z" transform="translate(-46.4 -191.01)"/><path class="cls-5" d="M233,298.63v-.13h-.1a.5.5,0,0,0-.38,0h-.09l-.19,2.85c0,.08,0,.16.13.23a.81.81,0,0,0,.68,0c.11-.07.16-.15.14-.24Z" transform="translate(-46.4 -191.01)"/><path class="cls-38" d="M232.73,294.55a3.09,3.09,0,1,0,3.09,3.09A3.08,3.08,0,0,0,232.73,294.55Z" transform="translate(-46.4 -191.01)"/><path class="cls-4" d="M305.38,312a4.85,4.85,0,0,1-4.42,0,1.34,1.34,0,0,1,0-2.55,4.85,4.85,0,0,1,4.42,0A1.35,1.35,0,0,1,305.38,312Z" transform="translate(-46.4 -191.01)"/><path class="cls-5" d="M303.45,307.94v-.12h-.09a.45.45,0,0,0-.39,0h-.09l-.19,2.85a.22.22,0,0,0,.14.22.74.74,0,0,0,.68,0c.11-.07.15-.15.13-.23Z" transform="translate(-46.4 -191.01)"/><circle class="cls-39" cx="256.75" cy="115.94" r="3.09"/><path class="cls-4" d="M316.91,307.54a4.87,4.87,0,0,1-4.43,0,1.35,1.35,0,0,1,0-2.56,4.91,4.91,0,0,1,4.42,0A1.35,1.35,0,0,1,316.91,307.54Z" transform="translate(-46.4 -191.01)"/><path class="cls-5" d="M315,303.51v-.13h-.09a.5.5,0,0,0-.38,0h-.09l-.2,2.85a.26.26,0,0,0,.14.23.81.81,0,0,0,.68,0,.24.24,0,0,0,.14-.23Z" transform="translate(-46.4 -191.01)"/><path class="cls-40" d="M314.68,299.43a3.09,3.09,0,1,0,3.09,3.09A3.09,3.09,0,0,0,314.68,299.43Z" transform="translate(-46.4 -191.01)"/><path class="cls-4" d="M353,307.71a4.87,4.87,0,0,1-4.43,0,1.35,1.35,0,0,1,0-2.55,4.87,4.87,0,0,1,4.43,0A1.35,1.35,0,0,1,353,307.71Z" transform="translate(-46.4 -191.01)"/><path class="cls-5" d="M351,303.68v-.12H351a.45.45,0,0,0-.39,0h-.09l-.19,2.85a.22.22,0,0,0,.14.22.74.74,0,0,0,.68,0,.21.21,0,0,0,.13-.23Z" transform="translate(-46.4 -191.01)"/><path class="cls-41" d="M350.75,299.61a3.09,3.09,0,1,0,3.08,3.08A3.08,3.08,0,0,0,350.75,299.61Z" transform="translate(-46.4 -191.01)"/><path class="cls-4" d="M383.93,265.72a4.85,4.85,0,0,1-4.42,0c-1.23-.7-1.23-1.84,0-2.55a4.85,4.85,0,0,1,4.42,0A1.35,1.35,0,0,1,383.93,265.72Z" transform="translate(-46.4 -191.01)"/><path class="cls-5" d="M382,261.69v-.12h-.09a.42.42,0,0,0-.38,0h-.1l-.19,2.85a.22.22,0,0,0,.14.22.74.74,0,0,0,.68,0,.21.21,0,0,0,.13-.23Z" transform="translate(-46.4 -191.01)"/><path class="cls-42" d="M381.71,257.62a3.09,3.09,0,1,0,3.08,3.08A3.08,3.08,0,0,0,381.71,257.62Z" transform="translate(-46.4 -191.01)"/><path class="cls-4" d="M374,264.49a4.85,4.85,0,0,1-4.42,0,1.35,1.35,0,0,1,0-2.55,4.85,4.85,0,0,1,4.42,0A1.35,1.35,0,0,1,374,264.49Z" transform="translate(-46.4 -191.01)"/><path class="cls-5" d="M372,260.46v-.12h-.09a.42.42,0,0,0-.38,0h-.1l-.19,2.85a.22.22,0,0,0,.14.22.74.74,0,0,0,.68,0c.11-.07.15-.15.13-.23Z" transform="translate(-46.4 -191.01)"/><path class="cls-43" d="M371.73,256.38a3.09,3.09,0,1,0,3.09,3.09A3.1,3.1,0,0,0,371.73,256.38Z" transform="translate(-46.4 -191.01)"/><path class="cls-4" d="M328.57,267.28a4.91,4.91,0,0,1-4.42,0,1.35,1.35,0,0,1,0-2.56,4.91,4.91,0,0,1,4.42,0A1.35,1.35,0,0,1,328.57,267.28Z" transform="translate(-46.4 -191.01)"/><path class="cls-5" d="M326.64,263.25v-.13h-.09a.5.5,0,0,0-.38,0h-.1l-.19,2.85a.24.24,0,0,0,.14.23.81.81,0,0,0,.68,0c.11-.07.15-.15.13-.24Z" transform="translate(-46.4 -191.01)"/><path class="cls-44" d="M326.35,259.17a3.09,3.09,0,1,0,3.09,3.09A3.09,3.09,0,0,0,326.35,259.17Z" transform="translate(-46.4 -191.01)"/><path class="cls-4" d="M380.83,236a4.91,4.91,0,0,1-4.42,0,1.35,1.35,0,0,1,0-2.56,4.91,4.91,0,0,1,4.42,0A1.35,1.35,0,0,1,380.83,236Z" transform="translate(-46.4 -191.01)"/><path class="cls-5" d="M378.91,232v-.13h-.09a.5.5,0,0,0-.38,0h-.1l-.19,2.85a.24.24,0,0,0,.14.23.81.81,0,0,0,.68,0,.25.25,0,0,0,.14-.24Z" transform="translate(-46.4 -191.01)"/><path class="cls-45" d="M378.61,227.87A3.09,3.09,0,1,0,381.7,231,3.09,3.09,0,0,0,378.61,227.87Z" transform="translate(-46.4 -191.01)"/><path class="cls-4" d="M388.25,226.52a4.87,4.87,0,0,1-4.43,0,1.35,1.35,0,0,1,0-2.55,4.87,4.87,0,0,1,4.43,0A1.35,1.35,0,0,1,388.25,226.52Z" transform="translate(-46.4 -191.01)"/><path class="cls-5" d="M386.32,222.49v-.12h-.1a.42.42,0,0,0-.38,0h-.09l-.19,2.85a.22.22,0,0,0,.14.22.74.74,0,0,0,.68,0,.21.21,0,0,0,.13-.23Z" transform="translate(-46.4 -191.01)"/><path class="cls-46" d="M386,218.41a3.09,3.09,0,1,0,3.08,3.09A3.09,3.09,0,0,0,386,218.41Z" transform="translate(-46.4 -191.01)"/><path class="cls-4" d="M362.41,314.24a4.85,4.85,0,0,1-4.42,0,1.34,1.34,0,0,1,0-2.55,4.85,4.85,0,0,1,4.42,0A1.35,1.35,0,0,1,362.41,314.24Z" transform="translate(-46.4 -191.01)"/><path class="cls-5" d="M360.48,310.21v-.12h-.09a.42.42,0,0,0-.38,0h-.1l-.19,2.85a.22.22,0,0,0,.14.22.74.74,0,0,0,.68,0,.21.21,0,0,0,.13-.23Z" transform="translate(-46.4 -191.01)"/><path class="cls-47" d="M360.19,306.14a3.09,3.09,0,1,0,3.09,3.08A3.08,3.08,0,0,0,360.19,306.14Z" transform="translate(-46.4 -191.01)"/><path class="cls-4" d="M202.06,285.29a4.94,4.94,0,0,1-4.43,0,1.35,1.35,0,0,1,0-2.56,4.91,4.91,0,0,1,4.42,0A1.35,1.35,0,0,1,202.06,285.29Z" transform="translate(-46.4 -191.01)"/><path class="cls-5" d="M200.13,281.25v-.12H200a.42.42,0,0,0-.38,0h-.09s-.2,2.85-.19,2.85,0,.16.13.22a.74.74,0,0,0,.68,0c.11-.06.16-.15.14-.23Z" transform="translate(-46.4 -191.01)"/><path class="cls-48" d="M199.83,277.18a3.09,3.09,0,1,0,3.09,3.08A3.08,3.08,0,0,0,199.83,277.18Z" transform="translate(-46.4 -191.01)"/><path class="cls-4" d="M145.48,237.23a4.85,4.85,0,0,1-4.42,0,1.34,1.34,0,0,1,0-2.55,4.85,4.85,0,0,1,4.42,0A1.35,1.35,0,0,1,145.48,237.23Z" transform="translate(-46.4 -191.01)"/><path class="cls-5" d="M143.55,233.2v-.12h-.09a.42.42,0,0,0-.38,0H143s-.19,2.84-.19,2.85a.22.22,0,0,0,.14.22.74.74,0,0,0,.68,0,.21.21,0,0,0,.13-.23Z" transform="translate(-46.4 -191.01)"/><path class="cls-49" d="M143.26,229.12a3.09,3.09,0,1,0,3.09,3.09A3.1,3.1,0,0,0,143.26,229.12Z" transform="translate(-46.4 -191.01)"/><path class="cls-4" d="M173.54,248.87a4.85,4.85,0,0,1-4.42,0,1.35,1.35,0,0,1,0-2.55,4.85,4.85,0,0,1,4.42,0C174.77,247,174.77,248.16,173.54,248.87Z" transform="translate(-46.4 -191.01)"/><path class="cls-5" d="M171.62,244.84v-.12h-.09a.42.42,0,0,0-.38,0H171l-.19,2.84a.24.24,0,0,0,.14.23.81.81,0,0,0,.68,0,.24.24,0,0,0,.14-.23Z" transform="translate(-46.4 -191.01)"/><path class="cls-50" d="M171.32,240.76a3.09,3.09,0,1,0,3.09,3.09A3.08,3.08,0,0,0,171.32,240.76Z" transform="translate(-46.4 -191.01)"/><path class="cls-4" d="M112.49,228.39a4.94,4.94,0,0,1-4.43,0,1.35,1.35,0,0,1,0-2.56,4.91,4.91,0,0,1,4.42,0A1.35,1.35,0,0,1,112.49,228.39Z" transform="translate(-46.4 -191.01)"/><path class="cls-5" d="M110.56,224.36v-.13h-.1a.5.5,0,0,0-.38,0H110l-.19,2.85a.26.26,0,0,0,.14.23.81.81,0,0,0,.68,0c.11-.07.16-.15.14-.23Z" transform="translate(-46.4 -191.01)"/><circle class="cls-51" cx="63.86" cy="32.35" r="3.09"/><polygon class="cls-52" points="56.61 130.8 53.04 132.86 38.72 124.6 42.3 122.53 56.61 130.8"/><polygon class="cls-52" points="63.93 126.57 60.35 128.64 46.04 120.38 49.62 118.31 63.93 126.57"/><polygon class="cls-52" points="71.25 122.35 67.67 124.41 53.36 116.15 56.94 114.08 71.25 122.35"/><polygon class="cls-52" points="78.57 118.12 74.99 120.19 60.68 111.92 64.26 109.86 78.57 118.12"/><polygon class="cls-52" points="85.89 113.9 82.31 115.96 68 107.7 71.58 105.63 85.89 113.9"/><polygon class="cls-52" points="93.21 109.67 89.63 111.74 75.32 103.47 78.89 101.41 93.21 109.67"/><polygon class="cls-52" points="100.53 105.44 96.95 107.51 82.64 99.25 86.21 97.18 100.53 105.44"/><polygon class="cls-52" points="121.57 168.3 117.99 170.37 103.68 162.1 107.26 160.04 121.57 168.3"/><polygon class="cls-52" points="128.89 164.07 125.31 166.14 111 157.88 114.58 155.81 128.89 164.07"/><polygon class="cls-52" points="136.21 159.85 132.63 161.92 118.32 153.65 121.89 151.59 136.21 159.85"/><polygon class="cls-52" points="143.53 155.62 139.95 157.69 125.64 149.43 129.21 147.36 143.53 155.62"/><polygon class="cls-52" points="150.84 151.4 147.27 153.47 132.95 145.2 136.53 143.14 150.84 151.4"/><polygon class="cls-52" points="158.16 147.17 154.59 149.24 140.27 140.98 143.85 138.91 158.16 147.17"/><polygon class="cls-52" points="165.48 142.95 161.9 145.01 147.59 136.75 151.17 134.69 165.48 142.95"/><polygon class="cls-52" points="107.26 107.51 103.68 105.44 117.99 97.18 121.57 99.25 107.26 107.51"/><polygon class="cls-52" points="114.58 111.74 111 109.67 125.31 101.41 128.89 103.47 114.58 111.74"/><polygon class="cls-52" points="121.89 115.96 118.32 113.9 132.63 105.63 136.21 107.7 121.89 115.96"/><polygon class="cls-52" points="129.21 120.19 125.64 118.12 139.95 109.86 143.53 111.92 129.21 120.19"/><polygon class="cls-52" points="136.53 124.41 132.95 122.35 147.27 114.08 150.84 116.15 136.53 124.41"/><polygon class="cls-52" points="143.85 128.64 140.27 126.57 154.59 118.31 158.16 120.38 143.85 128.64"/><polygon class="cls-52" points="151.17 132.86 147.59 130.8 161.9 122.53 165.48 124.6 151.17 132.86"/><polygon class="cls-52" points="42.3 145.01 38.72 142.95 53.04 134.69 56.61 136.75 42.3 145.01"/><polygon class="cls-52" points="49.62 149.24 46.04 147.17 60.35 138.91 63.93 140.98 49.62 149.24"/><polygon class="cls-52" points="56.94 153.47 53.36 151.4 67.67 143.14 71.25 145.2 56.94 153.47"/><polygon class="cls-52" points="64.26 157.69 60.68 155.62 74.99 147.36 78.57 149.43 64.26 157.69"/><polygon class="cls-52" points="71.58 161.92 68 159.85 82.31 151.59 85.89 153.65 71.58 161.92"/><polygon class="cls-52" points="78.89 166.14 75.32 164.07 89.63 155.81 93.21 157.88 78.89 166.14"/><polygon class="cls-52" points="86.21 170.37 82.64 168.3 96.95 160.04 100.53 162.1 86.21 170.37"/><g id="Axonometric_Cube" data-name="Axonometric Cube"><polygon id="Cube_face_-_left" data-name="Cube face - left" class="cls-53" points="49.62 123.47 102.22 153.84 102.22 164.38 49.62 134.01 49.62 123.47"/><polygon id="Cube_face_-_right" data-name="Cube face - right" class="cls-54" points="155.14 133.82 102.22 164.38 102.22 153.84 155.14 123.29 155.14 133.82"/><polygon id="Cube_face_-_top" data-name="Cube face - top" class="cls-55" points="102.22 153.84 49.62 123.47 102.54 92.92 155.14 123.29 102.22 153.84"/></g></svg>